<?xml version="1.0" encoding="UTF-8" standalone="no"?>
<!-- Created with Inkscape (http://www.inkscape.org/) -->

<svg
   version="1.1"
   id="svg1"
   width="549.77472"
   height="172.29962"
   viewBox="0 0 549.77472 172.29962"
   xml:space="preserve"
   xmlns="http://www.w3.org/2000/svg"
   xmlns:svg="http://www.w3.org/2000/svg"><defs
     id="defs1"><rect
       x="104.1269"
       y="161.9679"
       width="469.13858"
       height="249.74876"
       id="rect25" /></defs><g
     id="g1"
     style="display:inline"
     transform="translate(-29.108944,-421.59552)"><rect
       style="opacity:0.787353;mix-blend-mode:multiply;fill:#0000ff;fill-opacity:1;stroke-width:1.05541;image-rendering:auto"
       id="rect23"
       width="282.26169"
       height="75.705109"
       x="296.62195"
       y="421.59552" /><text
       xml:space="preserve"
       id="text23"
       style="font-weight:bold;font-size:72.0515px;font-family:Hack;-inkscape-font-specification:'Hack, Bold';white-space:pre;shape-inside:url(#rect25);fill:#000000"
       transform="translate(-79.556409,260.97061)"><tspan
         x="104.12695"
         y="225.71744"
         id="tspan2"><tspan
   style="fill:#ffffff"
   id="tspan1">STUDAR</tspan> HUB</tspan></text><rect
       style="opacity:0;fill:#ffffff;stroke-width:0.406582"
       id="rect22"
       width="281.38898"
       height="155.64342"
       x="79.071854"
       y="438.25171" /><g
       style="fill:none"
       id="g26"
       transform="matrix(0.71017152,0,0,0.98677036,462.48942,396.51047)"><path
         fill-rule="evenodd"
         clip-rule="evenodd"
         d="m 37.0409,66.6549 23.4059,8.7884 c 1.8228,0.6845 3.8327,0.6806 5.6529,-0.0108 l 22.8623,-8.6841 -2e-4,16.6993 c 2e-4,0.0158 3e-4,0.0315 3e-4,0.0473 0,5.1449 -11.623,9.3156 -25.9606,9.3156 -14.3377,0 -25.9606,-4.1707 -25.9606,-9.3156 0,-0.0052 -1e-4,-0.0105 -1e-4,-0.0158 0,-0.0105 -10e-5,-0.021 1e-4,-0.0315 z"
         fill="#000000"
         id="path1-3" /><path
         d="m 110.065,79.2054 c 0.781,-1.434 1.664,-3.2968 2.412,-4.9528 0.582,-1.2894 2.239,-1.5735 2.951,-0.3515 1.249,2.1398 2.072,4.6929 2.481,6.3941 0.13,0.5403 0.016,1.1263 -0.4,1.4956 -1.761,1.5663 -4.481,1.1466 -6.593,0.3457 -1.133,-0.4296 -1.431,-1.8671 -0.851,-2.9311 z"
         fill="#ffffff"
         id="path2" /><path
         fill-rule="evenodd"
         clip-rule="evenodd"
         d="m 114.04,74.1257 c -0.223,0.0307 -0.497,0.1954 -0.652,0.5383 -0.751,1.6636 -1.646,3.5529 -2.445,5.0196 -0.169,0.3104 -0.206,0.6739 -0.128,0.9708 0.075,0.2836 0.237,0.464 0.456,0.547 0.988,0.3749 2.074,0.642 3.081,0.65 1,0.0079 1.852,-0.2377 2.493,-0.8079 0.072,-0.0637 0.159,-0.2349 0.092,-0.5142 -0.397,-1.6474 -1.191,-4.0986 -2.372,-6.1243 -0.143,-0.2455 -0.332,-0.3059 -0.525,-0.2793 z m -0.273,-1.9812 c 0.959,-0.1323 1.956,0.2762 2.525,1.2527 l -0.864,0.5039 m -1.661,-1.7566 c -0.929,0.1281 -1.774,0.7502 -2.202,1.6967 z m 2.525,1.2527 c 1.315,2.2539 2.167,4.9089 2.589,6.6639 0.193,0.8014 0.052,1.8021 -0.707,2.477 -1.12,0.9961 -2.51,1.3238 -3.838,1.3132 -1.321,-0.0105 -2.651,-0.3537 -3.775,-0.7798 -1.876,-0.7116 -2.145,-2.9289 -1.375,-4.3444 0.764,-1.4012 1.635,-3.2373 2.379,-4.8859"
         fill="#000000"
         id="path3" /><path
         fill-rule="evenodd"
         clip-rule="evenodd"
         d="m 112.252,71.6091 c 0.427,-0.3497 1.057,-0.2867 1.407,0.1407 0.343,0.4192 0.519,1.0352 0.63,1.5478 0.121,0.5654 0.205,1.2264 0.263,1.891 0.116,1.3324 0.136,2.7744 0.119,3.6999 -0.01,0.5522 -0.466,0.9917 -1.018,0.9817 -0.552,-0.01 -0.992,-0.4658 -0.981,-1.018 0.015,-0.8765 -0.004,-2.2456 -0.112,-3.4901 -0.055,-0.6239 -0.129,-1.1927 -0.226,-1.6432 -0.049,-0.2251 -0.099,-0.4032 -0.148,-0.5351 -0.046,-0.1245 -0.077,-0.1696 -0.077,-0.1699 0,-1e-4 0.001,8e-4 0.002,0.0024 -0.35,-0.4274 -0.287,-1.0574 0.141,-1.4072 z"
         fill="#000000"
         id="path4" /><path
         fill-rule="evenodd"
         clip-rule="evenodd"
         d="m 113.475,52.3058 c 0.828,0 1.5,0.6716 1.5,1.5 v 16.6113 c 0,0.8285 -0.672,1.5 -1.5,1.5 -0.829,0 -1.5,-0.6715 -1.5,-1.5 V 53.8058 c 0,-0.8284 0.671,-1.5 1.5,-1.5 z"
         fill="#000000"
         id="path5" /><path
         d="m 117.603,71.0069 c 0,2.28 -1.848,4.1283 -4.128,4.1283 -2.28,0 -4.128,-1.8483 -4.128,-4.1283 0,-2.2799 1.848,-4.1282 4.128,-4.1282 2.28,0 4.128,1.8483 4.128,4.1282 z"
         fill="#000000"
         id="path6" /><path
         d="M 60.1547,33.0997 11.6849,52.4133 c -0.8958,0.357 -0.883,1.6294 0.0197,1.9684 l 48.6085,18.2514 c 1.9236,0.7223 4.0447,0.7182 5.9655,-0.0114 L 114.302,54.3803 c 0.898,-0.341 0.91,-1.6063 0.02,-1.9654 L 66.4363,33.1122 C 64.422,32.3003 62.1722,32.2958 60.1547,33.0997 Z"
         fill="#000000"
         id="path7" /><path
         fill-rule="evenodd"
         clip-rule="evenodd"
         d="m 100.016,55.5271 c 0.189,0.5188 -0.078,1.0929 -0.5968,1.2822 L 65.2136,69.2924 c -0.5189,0.1893 -1.0929,-0.0778 -1.2823,-0.5966 -0.1893,-0.5188 0.0778,-1.0929 0.5966,-1.2822 L 98.7335,54.9305 c 0.5189,-0.1893 1.0929,0.0778 1.2825,0.5966 z"
         fill="#ffffff"
         id="path8" /><path
         fill-rule="evenodd"
         clip-rule="evenodd"
         d="m 19.5669,53.2122 c 0.1902,-0.5185 0.7648,-0.7847 1.2833,-0.5945 l 11.4317,4.1935 c 0.5185,0.1902 0.7846,0.7647 0.5944,1.2832 -0.1902,0.5185 -0.7647,0.7847 -1.2832,0.5945 L 20.1614,54.4954 c -0.5185,-0.1902 -0.7847,-0.7647 -0.5945,-1.2832 z"
         fill="#ffffff"
         id="path9" /></g></g></svg>
