<?xml version="1.0" encoding="UTF-8" standalone="no"?>
<!-- Created with Inkscape (http://www.inkscape.org/) -->

<svg
   version="1.1"
   id="svg1"
   width="283.13062"
   height="156.02455"
   viewBox="0 0 283.13062 156.02455"
   xml:space="preserve"
   xmlns="http://www.w3.org/2000/svg"
   xmlns:svg="http://www.w3.org/2000/svg"><defs
     id="defs1"><rect
       x="104.1269"
       y="161.9679"
       width="322.74292"
       height="234.27406"
       id="rect21" /></defs><g
     id="g1"
     style="display:inline"
     transform="translate(-94.173729,-161.26414)"><rect
       style="display:inline;opacity:0;fill:#ffffff;stroke-width:0.407207"
       id="rect16"
       width="282.25522"
       height="155.64342"
       x="94.782921"
       y="161.26414" /><g
       style="display:inline;fill:#000000"
       id="g20"
       transform="matrix(0.64489015,0,0,0.73338418,243.10154,224.62731)"><path
         d="m 86.5,38.1 c 8.4,0 15.2,6.8 15.2,15.2 0,8.4 -6.8,15.2 -15.2,15.2 -8.4,0 -15.2,-6.8 -15.2,-15.2 0,-8.4 6.8,-15.2 15.2,-15.2 z m 19.1,34.3 H 70.9 c -5,0 -9.9,0.7 -13.5,5.6 -1.6,2.4 -16,20.6 -16,20.6 H 21.1 c -3.6,0 -6.6,3 -6.6,6.6 0,3.6 3,6.6 6.6,6.6 h 23.1 c 1.7,0 3.4,-0.7 4.6,-1.9 L 62.3,93.5 c 0.4,-0.4 0.7,-0.6 1.3,-0.6 1.1,0 1.9,0.7 1.9,1.9 v 29.9 h 42 V 95.2 c 0,-1.1 0.7,-1.9 1.9,-1.9 1.1,0 1.9,0.7 1.9,1.9 v 29.5 h 13.3 V 91.5 C 124.7,81 116.1,72.4 105.6,72.4 Z M 7.5,79.5 c 0,0 0,-1.7 0,-2 h 24.7 c -0.4,0.7 -0.6,1.6 -0.8,2.3 C 31.2,81 31.3,82 31.6,83 L 10.9,82.9 C 9,82.9 7.5,81.4 7.5,79.5 M 34.8,34.9 c 0,3.5 -0.1,34.9 -0.1,38.4 H 11.1 L 25.9,61 25.8,34.9 c 1.4,0 7.7,0 9,0 M 37.1,83 h -1 c -0.6,-0.6 -0.8,-1.5 -0.6,-2.4 0.3,-1.6 1.5,-3 2,-3.2 v 0 c 0.8,-0.3 1.4,-1 1.4,-1.9 L 39,32.9 c 0,-1.1 -0.9,-2.1 -2.1,-2.1 0,0 -8.6,0 -11,0 0,-2 0,-4.8 0,-4.8 0,-0.8 -0.5,-1.6 -1.2,-1.9 C 24,23.8 23,23.9 22.5,24.5 L 8,38.8 C 5.4,41.3 3.5,46.1 3.5,49.6 L 3.3,79.5 c 0,4.2 3.4,7.6 7.5,7.6 L 37,87.2 c 1.1,0 2.1,-0.9 2.1,-2.1 v 0 c 0,-1.2 -0.8,-2.1 -2,-2.1"
         id="path1" /></g><rect
       style="display:inline;opacity:0.787353;mix-blend-mode:multiply;fill:#0000ff;stroke-width:1.05703;image-rendering:auto"
       id="rect20"
       width="283.13062"
       height="75.705109"
       x="94.173729"
       y="240.16849" /><text
       xml:space="preserve"
       id="text20"
       style="font-weight:bold;font-size:72.0515px;font-family:Hack;-inkscape-font-specification:'Hack, Bold';white-space:pre;shape-inside:url(#rect21);display:inline;fill:#000000"
       transform="translate(-14.422669,0.48662568)"><tspan
         x="104.12695"
         y="225.71744"
         id="tspan2"><tspan
   style="fill:#ffffff"
   id="tspan1">STUDAR</tspan> </tspan><tspan
         x="104.12695"
         y="315.78182"
         id="tspan3">HUB</tspan></text></g></svg>
